# Blender 4.5.3 LTS
# www.blender.org
mtllib Gemupdate.mtl
o Body
v 0.811826 6.408051 -0.619776
v 0.811826 6.408051 0.595188
v -0.446479 7.293107 -0.618385
v -0.446479 7.293107 0.596113
v -0.389026 6.901845 0.614392
v -0.389026 6.901845 -0.638979
v 0.961141 7.197784 -0.689106
v -0.589127 7.536661 0.601938
v 0.961141 7.197784 0.601476
v -0.589127 7.536661 -0.688410
v -0.644960 7.646505 0.636372
v 0.955758 7.558828 -0.692250
v 0.955758 7.558828 0.636141
v -0.644960 7.646505 -0.691902
v -0.764481 7.799036 0.703641
v 0.990904 7.766638 -0.695393
v 0.990904 7.766638 0.670805
v -0.764481 7.799036 -0.728229
v -0.714377 8.292840 0.802148
v 0.911470 7.976231 -0.695393
v 0.911470 7.976231 0.670805
v -0.714377 8.292840 -0.826736
v -0.510266 8.639664 0.952492
v 0.249057 8.826930 -1.080148
v 0.249057 8.826930 1.055560
v -0.510266 8.639664 -0.977080
v -0.155225 8.886427 0.972813
v -0.155225 8.886427 -0.997401
v 0.285449 7.365701 -0.688761
v 0.285449 7.365701 0.601705
v 0.255068 7.602273 -0.692077
v 0.255068 7.602273 0.636255
v 0.213575 7.877001 -0.596887
v 0.213575 7.877001 0.572299
v 0.222543 8.184958 -0.695393
v 0.222543 8.184958 0.670805
v -0.052875 8.884706 -0.988938
v -0.052875 8.884706 0.964350
v 0.973440 7.840549 -0.696707
v 0.973440 7.840549 0.672119
v -0.736645 8.073372 -0.855193
v -0.736645 8.073372 0.830606
v 0.218557 8.055969 0.628338
v 0.218557 8.055969 -0.652926
vn -0.5753 -0.8179 -0.0000
vn -0.9894 -0.1453 -0.0000
vn -0.0575 -0.1303 -0.9898
vn 0.9826 -0.1858 -0.0000
vn -0.8629 -0.5054 -0.0000
vn -0.0045 -0.0115 0.9999
vn -0.0021 -0.0109 -0.9999
vn 0.9999 0.0149 -0.0000
vn -0.8915 -0.4531 -0.0000
vn -0.0242 -0.2010 0.9793
vn -0.0461 0.1866 -0.9814
vn 0.9860 -0.1668 -0.0000
vn -0.7871 -0.6168 -0.0000
vn 0.0695 0.0185 0.9974
vn -0.0798 -0.1702 -0.9822
vn 0.9096 0.4154 -0.0000
vn -0.9949 0.1009 -0.0000
vn 0.1700 -0.0524 0.9840
vn -0.2110 -0.4961 -0.8423
vn 0.7890 0.6144 -0.0000
vn -0.8618 0.5072 -0.0000
vn 0.1161 -0.3811 0.9172
vn -0.5707 0.8211 -0.0000
vn 0.0777 -0.1923 -0.9783
vn 0.1456 0.9893 -0.0000
vn 0.0777 -0.1923 0.9783
vn -0.2110 -0.4961 0.8423
vn 0.1161 -0.3811 -0.9172
vn -0.0798 -0.1702 0.9822
vn 0.1700 -0.0524 -0.9840
vn -0.0601 0.0597 0.9964
vn 0.0659 0.1605 -0.9848
vn -0.0176 -0.1161 0.9931
vn -0.0028 -0.0203 -0.9998
vn 0.1689 -0.3795 -0.9097
vn -0.1375 -0.2255 0.9645
vn 0.1689 -0.3795 0.9097
vn 0.9732 0.2300 -0.0000
vn -0.1375 -0.2255 -0.9645
vn -0.3803 -0.9249 -0.0000
vn 0.0374 0.0521 0.9979
vn 0.0400 0.0584 -0.9975
vt 0.643122 0.830877
vt 0.702335 0.830858
vt 0.702304 0.879383
vt 0.643092 0.879383
vt 0.353707 0.574839
vt 0.352196 0.590645
vt 0.304306 0.590276
vt 0.302835 0.574604
vt 0.762500 0.648691
vt 0.761991 0.637590
vt 0.792836 0.648739
vt 0.817949 0.658000
vt 0.809164 0.688939
vt 0.762399 0.767110
vt 0.730782 0.767004
vt 0.734114 0.715343
vt 0.766471 0.719028
vt 0.703469 0.649116
vt 0.705861 0.638511
vt 0.656338 0.688939
vt 0.648112 0.657992
vt 0.673360 0.649009
vt 0.793949 0.639059
vt 0.820164 0.643474
vt 0.716865 0.766009
vt 0.719269 0.713142
vt 0.705746 0.633672
vt 0.761254 0.632992
vt 0.672428 0.639293
vt 0.794823 0.627157
vt 0.823184 0.634872
vt 0.708749 0.765708
vt 0.710607 0.711434
vt 0.705830 0.626169
vt 0.760355 0.625939
vt 0.671603 0.627734
vt 0.796048 0.619234
vt 0.796552 0.613401
vt 0.821900 0.625433
vt 0.823152 0.631612
vt 0.705822 0.765669
vt 0.700117 0.765426
vt 0.701356 0.711211
vt 0.707476 0.711272
vt 0.702276 0.615565
vt 0.702235 0.607246
vt 0.763949 0.606817
vt 0.763914 0.615099
vt 0.670318 0.619740
vt 0.669769 0.613860
vt 0.782747 0.578067
vt 0.796727 0.580473
vt 0.658481 0.781098
vt 0.658587 0.695561
vt 0.695437 0.592521
vt 0.770680 0.592069
vt 0.683532 0.578139
vt 0.690310 0.576916
vt 0.775953 0.577091
vt 0.643092 0.778006
vt 0.643092 0.699167
vt 0.644475 0.625573
vt 0.669610 0.580750
vt 0.643176 0.631673
vt 0.646077 0.643515
vt 0.643092 0.634892
vt 0.142737 0.990282
vt 0.093299 0.989515
vt 0.093299 0.940990
vt 0.142737 0.940224
vt 0.398098 0.554148
vt 0.258503 0.554148
s 0
usemtl Material
f 3/1/1 1/2/1 2/3/1 4/4/1
f 5/5/2 4/6/2 3/7/2 6/8/2
f 3/9/3 10/10/3 29/11/3 7/12/3 1/13/3
f 1/14/4 7/15/4 9/16/4 2/17/4
f 4/18/5 8/19/5 10/10/5 3/9/5
f 2/20/6 9/21/6 30/22/6 8/19/6 4/18/6
f 29/11/7 31/23/7 12/24/7 7/12/7
f 7/15/8 12/25/8 13/26/8 9/16/8
f 8/19/9 11/27/9 14/28/9 10/10/9
f 30/22/10 32/29/10 11/27/10 8/19/10
f 31/23/11 33/30/11 16/31/11 12/24/11
f 12/25/12 16/32/12 17/33/12 13/26/12
f 11/27/13 15/34/13 18/35/13 14/28/13
f 32/29/14 34/36/14 15/34/14 11/27/14
f 44/37/15 35/38/15 20/39/15 39/40/15
f 39/41/16 20/42/16 21/43/16 40/44/16
f 42/45/17 19/46/17 22/47/17 41/48/17
f 43/49/18 36/50/18 19/46/18 42/45/18
f 35/38/19 37/51/19 24/52/19 20/39/19
f 20/42/20 24/53/20 25/54/20 21/43/20
f 19/46/21 23/55/21 26/56/21 22/47/21
f 36/50/22 38/57/22 23/55/22 19/46/22
f 23/55/23 27/58/23 28/59/23 26/56/23
f 26/56/24 28/59/24 37/51/24
f 24/53/25 28/60/25 27/61/25 25/54/25
f 23/55/26 38/57/26 27/58/26
f 21/62/27 25/63/27 38/57/27 36/50/27
f 22/47/28 26/56/28 37/51/28 35/38/28
f 40/64/29 21/62/29 36/50/29 43/49/29
f 41/48/30 22/47/30 35/38/30 44/37/30
f 13/65/31 17/66/31 34/36/31 32/29/31
f 14/28/32 18/35/32 33/30/32 31/23/32
f 9/21/33 13/65/33 32/29/33 30/22/33
f 10/10/34 14/28/34 31/23/34 29/11/34
f 18/35/35 41/48/35 44/37/35 33/30/35
f 17/66/36 40/64/36 43/49/36 34/36/36
f 34/36/37 43/49/37 42/45/37 15/34/37
f 15/34/17 42/45/17 41/48/17 18/35/17
f 16/32/38 39/41/38 40/44/38 17/33/38
f 33/30/39 44/37/39 39/40/39 16/31/39
f 6/67/40 1/68/40 2/69/40 5/70/40
f 4/6/41 5/5/41 2/71/41
f 6/8/42 3/7/42 1/72/42
o Feet
v -0.096575 1.353699 0.883705
v -0.660419 5.312191 0.981298
v -0.096575 1.303761 0.398534
v -0.660419 5.298573 0.153417
v 1.305959 1.362946 0.772347
v 0.366279 5.295850 0.981298
v 1.305959 1.313008 0.287175
v 0.366279 5.282232 0.153417
v -0.455836 4.423580 0.815535
v -0.455836 4.499219 0.382936
v 0.366279 2.913157 0.382936
v 0.366279 2.837517 0.815535
v -0.487180 4.235086 0.397583
v 0.366279 2.761969 0.397583
v 0.366279 2.680633 0.804956
v -0.487180 4.153750 0.804956
v -0.437132 3.386758 0.398059
v 0.320887 2.484708 0.398058
v 0.320887 2.403187 0.804613
v -0.437132 3.305238 0.804613
v -0.138309 2.224116 0.398533
v 0.366145 1.981970 0.398533
v 0.366145 1.900265 0.804270
v -0.138309 2.142411 0.804270
v -0.096575 1.353699 -0.908293
v -0.660419 5.312191 -1.005886
v -0.096575 1.303761 -0.423122
v -0.660419 5.298573 -0.178005
v 1.305959 1.362946 -0.796935
v 0.366279 5.295850 -1.005886
v 1.305959 1.313008 -0.311763
v 0.366279 5.282232 -0.178005
v -0.455836 4.423580 -0.840123
v -0.455836 4.499219 -0.407524
v 0.366279 2.913157 -0.407524
v 0.366279 2.837517 -0.840123
v -0.487180 4.235086 -0.422171
v 0.366279 2.761969 -0.422171
v 0.366279 2.680633 -0.829544
v -0.487180 4.153750 -0.829544
v -0.437132 3.386758 -0.422646
v 0.320887 2.484708 -0.422646
v 0.320887 2.403187 -0.829201
v -0.437132 3.305238 -0.829201
v -0.138309 2.224116 -0.423120
v 0.366145 1.981970 -0.423120
v 0.366145 1.900265 -0.828858
v -0.138309 2.142411 -0.828858
vn -0.9717 -0.2360 -0.0116
vn -0.1304 -0.1504 -0.9800
vn 1.0000 -0.0000 -0.0000
vn -0.0898 -0.1036 0.9906
vn 0.0147 -0.9946 0.1024
vn 0.0159 0.9997 -0.0164
vn -0.0795 -0.0435 0.9959
vn -0.1123 -0.0615 -0.9918
vn -0.9929 0.1167 0.0218
vn -0.9982 -0.0589 -0.0118
vn -0.0013 -0.0009 -1.0000
vn 0.9864 -0.1614 -0.0323
vn -0.0009 -0.0006 1.0000
vn -0.0005 -0.0005 1.0000
vn 0.9958 0.0896 0.0180
vn -0.0006 -0.0007 -1.0000
vn -0.9673 -0.2486 -0.0500
vn -0.9988 -0.0489 -0.0017
vn -0.0538 0.0367 -0.9979
vn 0.5415 0.8402 0.0300
vn 0.0686 0.0864 0.9939
vn -0.9717 -0.2360 0.0116
vn -0.1304 -0.1504 0.9800
vn -0.0898 -0.1036 -0.9906
vn 0.0147 -0.9946 -0.1024
vn 0.0159 0.9997 0.0164
vn -0.0795 -0.0435 -0.9959
vn -0.1123 -0.0615 0.9918
vn -0.9929 0.1167 -0.0218
vn -0.9982 -0.0589 0.0118
vn -0.0013 -0.0009 1.0000
vn 0.9864 -0.1614 0.0323
vn -0.0009 -0.0006 -1.0000
vn -0.0005 -0.0005 -1.0000
vn 0.9958 0.0896 -0.0180
vn -0.0006 -0.0007 1.0000
vn -0.9673 -0.2486 0.0500
vn -0.9988 -0.0489 0.0017
vn -0.0538 0.0367 0.9979
vn 0.5415 0.8402 -0.0300
vn 0.0686 0.0864 -0.9939
vt 0.577703 0.516132
vt 0.613241 0.517920
vt 0.608441 0.547525
vt 0.578609 0.533577
vt 0.324055 0.537422
vt 0.290401 0.547525
vt 0.291416 0.509481
vt 0.377049 0.496847
vt 0.518349 0.470017
vt 0.605013 0.451552
vt 0.608424 0.482364
vt 0.516964 0.486512
vt 0.440393 0.506321
vt 0.433832 0.453830
vt 0.451676 0.453528
vt 0.459320 0.505261
vt 0.258503 0.544489
vt 0.261234 0.506626
vt 0.510958 0.486588
vt 0.567305 0.517358
vt 0.513124 0.471273
vt 0.334208 0.536857
vt 0.382742 0.495770
vt 0.569152 0.532620
vt 0.535183 0.515665
vt 0.535919 0.531093
vt 0.365544 0.529258
vt 0.393502 0.495167
vt 0.503594 0.472554
vt 0.499989 0.488188
vt 0.478477 0.485067
vt 0.489783 0.505295
vt 0.488024 0.472725
vt 0.405887 0.510588
vt 0.413071 0.491050
vt 0.491663 0.521206
vt 0.459047 0.523080
vt 0.463805 0.439908
vt 0.577703 0.357062
vt 0.578609 0.339617
vt 0.608441 0.325669
vt 0.613241 0.355274
vt 0.324055 0.335772
vt 0.377049 0.376347
vt 0.291416 0.363713
vt 0.290401 0.325669
vt 0.518349 0.403177
vt 0.516964 0.386682
vt 0.608424 0.390830
vt 0.605013 0.421642
vt 0.440393 0.366873
vt 0.459321 0.367933
vt 0.451676 0.419667
vt 0.433832 0.419364
vt 0.261235 0.366568
vt 0.258503 0.328705
vt 0.510958 0.386606
vt 0.567305 0.355836
vt 0.513124 0.401921
vt 0.334208 0.336337
vt 0.382742 0.377424
vt 0.569152 0.340574
vt 0.535183 0.357529
vt 0.535919 0.342101
vt 0.365544 0.343936
vt 0.393502 0.378027
vt 0.503594 0.400640
vt 0.499989 0.385006
vt 0.478477 0.388128
vt 0.489783 0.367900
vt 0.488024 0.400469
vt 0.405887 0.362606
vt 0.413071 0.382144
vt 0.491663 0.351988
vt 0.459047 0.350114
vt 0.463805 0.433286
s 0
usemtl Material.004
f 53/73/43 46/74/43 48/75/43 54/76/43
f 54/77/44 48/78/44 52/79/44 55/80/44
f 55/81/45 52/82/45 50/83/45 56/84/45
f 56/84/46 50/83/46 46/74/46 53/73/46
f 47/85/47 51/86/47 49/87/47 45/88/47
f 52/79/48 48/78/48 46/89/48 50/90/48
f 59/91/49 56/84/49 53/73/49 60/92/49
f 58/93/45 55/81/45 56/84/45 59/91/45
f 57/94/50 54/77/50 55/80/50 58/95/50
f 60/92/51 53/73/51 54/76/51 57/96/51
f 64/97/52 60/92/52 57/96/52 61/98/52
f 61/99/53 57/94/53 58/95/53 62/100/53
f 62/101/54 58/93/54 59/91/54 63/102/54
f 63/102/55 59/91/55 60/92/55 64/97/55
f 67/103/56 63/102/56 64/97/56 68/104/56
f 66/105/57 62/101/57 63/102/57 67/103/57
f 65/106/58 61/99/58 62/100/58 66/107/58
f 68/104/59 64/97/59 61/98/59 65/108/59
f 45/88/60 68/104/60 65/108/60 47/109/60
f 47/85/61 65/106/61 66/107/61 51/86/61
f 51/110/62 66/105/62 67/103/62 49/87/62
f 49/87/63 67/103/63 68/104/63 45/88/63
f 77/111/64 78/112/64 72/113/64 70/114/64
f 78/115/65 79/116/65 76/117/65 72/118/65
f 79/119/45 80/120/45 74/121/45 76/122/45
f 80/120/66 77/111/66 70/114/66 74/121/66
f 71/123/67 69/124/67 73/125/67 75/126/67
f 76/117/68 74/127/68 70/128/68 72/118/68
f 83/129/69 84/130/69 77/111/69 80/120/69
f 82/131/45 83/129/45 80/120/45 79/119/45
f 81/132/70 82/133/70 79/116/70 78/115/70
f 84/130/71 81/134/71 78/112/71 77/111/71
f 88/135/72 85/136/72 81/134/72 84/130/72
f 85/137/73 86/138/73 82/133/73 81/132/73
f 86/139/74 87/140/74 83/129/74 82/131/74
f 87/140/75 88/135/75 84/130/75 83/129/75
f 91/141/76 92/142/76 88/135/76 87/140/76
f 90/143/77 91/141/77 87/140/77 86/139/77
f 89/144/78 90/145/78 86/138/78 85/137/78
f 92/142/79 89/146/79 85/136/79 88/135/79
f 69/124/80 71/147/80 89/146/80 92/142/80
f 71/123/81 75/126/81 90/145/81 89/144/81
f 75/148/82 73/125/82 91/141/82 90/143/82
f 73/125/83 69/124/83 92/142/83 91/141/83
o Hands
v -0.318314 6.384742 2.107302
v 0.317324 6.384742 2.107302
v 0.317324 5.990889 1.221721
v -0.318314 5.990889 1.221721
v -0.318314 6.620014 2.109749
v 0.317324 6.620014 2.109750
v 0.317324 6.125927 0.984159
v -0.318314 6.125927 0.984159
v 0.317324 7.341287 1.596631
v 0.317324 7.196505 0.977832
v -0.318314 7.196505 0.977832
v -0.318314 7.341287 1.596631
v 0.317324 8.024935 0.606022
v 0.317324 5.978028 1.244346
v 0.317324 8.573114 0.909750
v 0.317324 6.141680 1.980980
v -0.318314 8.024935 0.606022
v -0.318314 5.978028 1.244346
v -0.318314 8.573114 0.909750
v -0.318314 6.141680 1.980980
v -0.318314 6.384742 -2.123062
v 0.317323 6.384742 -2.123062
v 0.317323 5.990888 -1.237482
v -0.318314 5.990888 -1.237482
v -0.318314 6.620013 -2.125510
v 0.317323 6.620013 -2.125510
v 0.317324 6.125927 -0.999919
v -0.318314 6.125927 -0.999919
v 0.317323 7.341287 -1.612391
v 0.317324 7.196505 -0.993592
v -0.318314 7.196505 -0.993592
v -0.318314 7.341287 -1.612391
v 0.317324 8.024934 -0.621782
v 0.317323 5.978028 -1.260107
v 0.317324 8.573114 -0.925511
v 0.317323 6.141680 -1.996740
v -0.318314 8.024934 -0.621782
v -0.318314 5.978028 -1.260107
v -0.318314 8.573114 -0.925511
v -0.318314 6.141680 -1.996740
v -0.139736 5.343978 -1.867115
v 0.139744 5.390101 -1.704437
v -0.139727 5.390101 -1.704437
v 0.139735 5.526418 -1.555037
v -0.139736 5.526418 -1.555037
v -0.139735 5.279754 -1.519827
v 0.139735 5.279754 -1.519827
v 0.139735 5.343978 -1.867115
v 0.139735 5.278604 -1.389114
v -0.139735 5.278604 -1.389114
v 0.139878 5.419105 -1.706890
v -0.139593 5.419105 -1.706890
v 0.139735 5.541149 -1.554797
v -0.139736 5.541149 -1.554797
v -0.139735 5.300436 -1.519677
v 0.139735 5.300436 -1.519677
v 0.139735 5.537939 -1.842888
v 0.139735 5.299778 -1.390658
v -0.139735 5.299778 -1.390658
v -0.139736 5.537939 -1.842888
v 0.139735 5.388271 -1.704282
v -0.134245 6.150011 -1.662040
v 0.145226 6.150011 -1.662040
v -0.139736 5.388271 -1.704282
v 0.139735 5.525489 -1.555051
v -0.139736 6.130184 -1.545230
v 0.139735 6.130184 -1.545230
v -0.139736 5.525489 -1.555051
v 0.139735 6.127435 -1.513666
v 0.139735 5.278449 -1.519837
v -0.139735 6.127435 -1.513666
v -0.139735 5.278449 -1.519837
v 0.139735 6.146437 -1.452358
v 0.139735 5.277267 -1.389017
v 0.139735 6.146437 -1.731828
v 0.139735 4.860093 -1.772569
v -0.139735 6.146437 -1.452358
v -0.139735 5.277267 -1.389017
v -0.139736 6.146437 -1.731828
v -0.139736 4.860093 -1.772569
v -0.318314 6.384742 -2.123063
v 0.317324 6.384742 -2.123063
v 0.317324 5.990889 -1.237482
v -0.318314 5.990889 -1.237482
v -0.318314 6.620014 -2.125510
v 0.317324 6.620014 -2.125511
v 0.317324 6.125927 -0.999920
v -0.318314 6.125927 -0.999920
v 0.317324 7.341287 -1.612392
v 0.317324 7.196505 -0.993593
v -0.318314 7.196505 -0.993593
v -0.318314 7.341287 -1.612392
v 0.317324 8.024935 -0.621782
v 0.317324 5.978028 -1.260107
v 0.317324 8.573115 -0.925511
v 0.317324 6.141680 -1.996741
v -0.318314 8.024935 -0.621782
v -0.318314 5.978028 -1.260107
v -0.318314 8.573115 -0.925511
v -0.318314 6.141680 -1.996741
v -0.318314 6.384742 2.107302
v 0.317324 6.384742 2.107302
v 0.317324 5.990888 1.221721
v -0.318314 5.990888 1.221721
v -0.318314 6.620014 2.109749
v 0.317324 6.620014 2.109749
v 0.317324 6.125927 0.984159
v -0.318314 6.125927 0.984159
v 0.317324 7.341287 1.596631
v 0.317324 7.196505 0.977832
v -0.318314 7.196505 0.977832
v -0.318314 7.341287 1.596631
v 0.317324 8.024935 0.606021
v 0.317324 5.978028 1.244346
v 0.317324 8.573115 0.909750
v 0.317324 6.141680 1.980980
v -0.318314 8.024935 0.606021
v -0.318314 5.978028 1.244346
v -0.318314 8.573115 0.909750
v -0.318314 6.141680 1.980980
v -0.139735 5.343978 1.851354
v 0.139744 5.390101 1.688676
v -0.139727 5.390101 1.688676
v 0.139735 5.526418 1.539276
v -0.139735 5.526418 1.539276
v -0.139735 5.279754 1.504066
v 0.139735 5.279754 1.504066
v 0.139735 5.343978 1.851354
v 0.139735 5.278604 1.373354
v -0.139735 5.278604 1.373354
v 0.139878 5.419105 1.691130
v -0.139593 5.419105 1.691130
v 0.139735 5.541149 1.539037
v -0.139735 5.541149 1.539037
v -0.139735 5.300436 1.503916
v 0.139735 5.300436 1.503916
v 0.139735 5.537939 1.827128
v 0.139735 5.299778 1.374897
v -0.139735 5.299778 1.374897
v -0.139735 5.537939 1.827128
v 0.139735 5.388271 1.688522
v -0.134245 6.150011 1.646280
v 0.145226 6.150011 1.646280
v -0.139735 5.388271 1.688522
v 0.139735 5.525489 1.539291
v -0.139735 6.130184 1.529469
v 0.139735 6.130184 1.529469
v -0.139735 5.525489 1.539291
v 0.139735 6.127435 1.497906
v 0.139735 5.278449 1.504076
v -0.139735 6.127435 1.497906
v -0.139735 5.278449 1.504076
v 0.139735 6.146437 1.436597
v 0.139735 5.277267 1.373257
v 0.139735 6.146437 1.716068
v 0.139735 4.860093 1.756808
v -0.139735 6.146437 1.436597
v -0.139735 5.277267 1.373257
v -0.139735 6.146437 1.716068
v -0.139735 4.860093 1.756808
vn -1.0000 -0.0000 -0.0000
vn -0.0000 -0.8694 -0.4942
vn 1.0000 -0.0000 -0.0000
vn -0.0000 -0.4612 0.8873
vn -0.0000 -0.0104 0.9999
vn -0.0000 -0.0059 -1.0000
vn -0.0000 0.5797 0.8148
vn -0.0000 0.4846 -0.8747
vn -0.0000 -0.9762 0.2169
vn -0.0000 0.4870 0.8734
vn -0.0000 -0.4095 -0.9123
vn -0.0000 -0.8694 0.4942
vn -0.0000 -0.4612 -0.8873
vn -0.0000 -0.0104 -0.9999
vn -0.0000 -0.0059 1.0000
vn -0.0000 0.5797 -0.8148
vn -0.0000 0.4846 0.8747
vn -0.0000 -0.9762 -0.2169
vn -0.0000 0.4870 -0.8734
vn -0.0000 -0.4095 0.9123
vn 1.0000 -0.0029 0.0027
vn -1.0000 0.0029 -0.0027
vn -0.0000 -0.1918 -0.9814
vn -0.0000 0.0726 0.9974
vn -0.0000 0.0727 0.9974
vn 1.0000 -0.0005 -0.0006
vn -0.0000 0.1239 -0.9923
vn -1.0000 0.0029 -0.0030
vn -1.0000 0.0005 0.0006
vn 1.0000 -0.0029 0.0030
vn 0.9997 -0.0050 0.0228
vn -0.0000 -0.7361 0.6769
vn -0.0000 0.9859 0.1673
vn -0.9996 0.0008 0.0278
vn -0.0000 -0.1411 -0.9900
vn -0.0000 0.9962 0.0868
vn -0.9997 0.0050 -0.0228
vn -0.0000 -1.0000 -0.0090
vn -0.0000 0.9552 -0.2960
vn -0.0000 0.9987 -0.0511
vn -0.0000 -0.1282 0.9917
vn -0.0000 0.1795 -0.9837
vn 0.9996 -0.0008 -0.0278
vn 1.0000 -0.0029 -0.0027
vn -1.0000 0.0029 0.0027
vn -0.0000 -0.1918 0.9814
vn -0.0000 0.0727 -0.9974
vn 1.0000 -0.0005 0.0006
vn -0.0000 0.1239 0.9923
vn -1.0000 0.0029 0.0030
vn -1.0000 0.0005 -0.0006
vn 1.0000 -0.0029 -0.0030
vn 0.9997 -0.0050 -0.0228
vn -0.0000 -0.7361 -0.6769
vn -0.0000 0.9859 -0.1673
vn -0.9996 0.0008 -0.0278
vn -0.0000 -0.1411 0.9900
vn -0.0000 0.9962 -0.0868
vn -0.9997 0.0050 0.0228
vn -0.0000 -1.0000 0.0090
vn -0.0000 0.9552 0.2960
vn -0.0000 0.9987 0.0511
vn -0.0000 -0.1282 -0.9917
vn -0.0000 0.1795 0.9837
vn 0.9996 -0.0008 0.0278
vt 0.489182 0.931998
vt 0.502331 0.900035
vt 0.592341 0.926934
vt 0.589819 0.928736
vt 0.358777 0.931998
vt 0.353276 0.927951
vt 0.377461 0.883972
vt 0.379218 0.885914
vt 0.379486 0.884614
vt 0.378357 0.882338
vt 0.461382 0.867281
vt 0.448705 0.882064
vt 0.464875 0.850237
vt 0.512604 0.873932
vt 0.368219 0.860646
vt 0.313007 0.877636
vt 0.366153 0.861920
vt 0.616905 0.906987
vt 0.532405 0.789556
vt 0.595030 0.784635
vt 0.335046 0.743351
vt 0.398754 0.759411
vt 0.402571 0.760416
vt 0.470265 0.776680
vt 0.424374 0.678598
vt 0.369668 0.648441
vt 0.416697 0.600409
vt 0.473995 0.639708
vt 0.540892 0.647395
vt 0.592779 0.687553
vt 0.182123 0.602629
vt 0.279282 0.600409
vt 0.281810 0.602074
vt 0.193105 0.631130
vt 0.048601 0.600409
vt 0.069036 0.655666
vt 0.067449 0.657282
vt 0.043360 0.605394
vt 0.134941 0.645519
vt 0.148030 0.661206
vt 0.201624 0.655888
vt 0.155463 0.677220
vt 0.154284 0.678390
vt 0.057288 0.677842
vt 0.003311 0.661344
vt 0.306384 0.621189
vt 0.287210 0.742226
vt 0.224235 0.739275
vt 0.096158 0.775058
vt 0.032024 0.794883
vt 0.162265 0.753908
vt 0.122648 0.855372
vt 0.173835 0.891933
vt 0.117999 0.933601
vt 0.069044 0.887435
vt 0.239757 0.880992
vt 0.289558 0.838670
vt 0.839229 0.515605
vt 0.847303 0.534350
vt 0.846891 0.534244
vt 0.838515 0.515184
vt 0.677915 0.384202
vt 0.717405 0.419396
vt 0.717562 0.419765
vt 0.702234 0.426297
vt 0.863674 0.517655
vt 0.863419 0.517172
vt 0.736912 0.422898
vt 0.737532 0.423455
vt 0.726538 0.401343
vt 0.727415 0.401783
vt 0.867014 0.504043
vt 0.866559 0.503950
vt 0.653135 0.570294
vt 0.643092 0.544964
vt 0.687326 0.526831
vt 0.698827 0.551802
vt 0.886801 0.570294
vt 0.842357 0.550389
vt 0.869491 0.476370
vt 0.869006 0.476312
vt 0.737996 0.394013
vt 0.738120 0.394243
vt 0.739076 0.396163
vt 0.728598 0.403308
vt 0.864500 0.503504
vt 0.866914 0.476053
vt 0.827707 0.542087
vt 0.843970 0.533023
vt 0.703507 0.518097
vt 0.716801 0.542475
vt 0.860766 0.516258
vt 0.738482 0.424546
vt 0.719154 0.422303
vt 0.837176 0.514662
vt 0.714143 0.439556
vt 0.774142 0.507981
vt 0.780622 0.499592
vt 0.477513 0.582027
vt 0.457815 0.581751
vt 0.457601 0.554148
vt 0.477969 0.554348
vt 0.761051 0.481734
vt 0.770726 0.472459
vt 0.755255 0.485903
vt 0.782355 0.497438
vt 0.502047 0.582692
vt 0.502713 0.555064
vt 0.773622 0.470108
vt 0.784811 0.492161
vt 0.514971 0.582987
vt 0.515625 0.555393
vt 0.780824 0.467172
vt 0.770088 0.513077
vt 0.405507 0.582987
vt 0.404721 0.555484
vt 0.464249 0.236537
vt 0.431963 0.278597
vt 0.429219 0.279416
vt 0.463881 0.211211
vt 0.513086 0.309790
vt 0.500230 0.314434
vt 0.503974 0.236399
vt 0.507001 0.211181
vt 0.523006 0.308174
vt 0.503584 0.235590
vt 0.464812 0.235542
vt 0.464509 0.211584
vt 0.458603 0.194305
vt 0.513971 0.190438
vt 0.565826 0.294241
vt 0.382702 0.319047
vt 0.409171 0.272701
vt 0.456469 0.194354
vt 0.352505 0.181035
vt 0.422378 0.148519
vt 0.297538 0.215363
vt 0.510368 0.104416
vt 0.595655 0.136593
vt 0.425717 0.146166
vt 0.258503 0.100170
vt 0.330332 0.003311
vt 0.345986 0.063965
vt 0.312286 0.108011
vt 0.626282 0.003311
vt 0.636469 0.064571
vt 0.185501 0.009898
vt 0.227614 0.038652
vt 0.156746 0.064724
vt 0.156389 0.062814
vt 0.098334 0.056307
vt 0.098851 0.054276
vt 0.030647 0.018313
vt 0.072447 0.003311
vt 0.195477 0.593786
vt 0.183596 0.569399
vt 0.240160 0.542926
vt 0.251881 0.567073
vt 0.173602 0.548152
vt 0.230339 0.522255
vt 0.100981 0.079872
vt 0.003311 0.043504
vt 0.148096 0.084174
vt 0.251881 0.074539
vt 0.213211 0.177875
vt 0.147116 0.181740
vt 0.073245 0.170912
vt 0.013697 0.146001
vt 0.137848 0.467192
vt 0.195724 0.443577
vt 0.062951 0.264185
vt 0.123496 0.262035
vt 0.150486 0.314985
vt 0.087703 0.334635
vt 0.007788 0.291377
vt 0.840421 0.262747
vt 0.839444 0.263463
vt 0.847069 0.244127
vt 0.847582 0.243913
vt 0.665949 0.377579
vt 0.695700 0.339190
vt 0.710157 0.347469
vt 0.709825 0.348036
vt 0.864032 0.262988
vt 0.863721 0.263356
vt 0.729975 0.348192
vt 0.728941 0.348660
vt 0.717442 0.369027
vt 0.716934 0.369131
vt 0.867444 0.275976
vt 0.866981 0.276038
vt 0.652300 0.205418
vt 0.698633 0.222494
vt 0.687751 0.247677
vt 0.643092 0.231007
vt 0.842371 0.227938
vt 0.886080 0.206382
vt 0.867863 0.304203
vt 0.867375 0.304196
vt 0.727420 0.377369
vt 0.727269 0.377579
vt 0.718844 0.367553
vt 0.728602 0.375582
vt 0.865279 0.304217
vt 0.864840 0.276544
vt 0.844436 0.245484
vt 0.828380 0.235869
vt 0.717027 0.231673
vt 0.703862 0.256049
vt 0.861794 0.263805
vt 0.731243 0.346954
vt 0.712114 0.345546
vt 0.837757 0.263931
vt 0.709367 0.327833
vt 0.780223 0.275874
vt 0.774191 0.267180
vt 0.594900 0.554187
vt 0.595002 0.581816
vt 0.574937 0.581938
vt 0.574916 0.554318
vt 0.769172 0.302653
vt 0.760329 0.292960
vt 0.754936 0.288300
vt 0.781901 0.278096
vt 0.619572 0.554148
vt 0.619627 0.581731
vt 0.771806 0.305159
vt 0.784853 0.283479
vt 0.894029 0.265923
vt 0.889173 0.254202
vt 0.778067 0.308699
vt 0.770353 0.261854
vt 0.522248 0.581723
vt 0.522393 0.554148
s 0
usemtl Material
f 112/149/84 93/150/84 96/151/84 110/152/84
f 110/153/85 96/154/85 95/155/85 106/156/85
f 106/157/86 95/158/86 94/159/86 108/160/86
f 108/160/87 94/159/87 93/150/87 112/149/87
f 94/159/88 98/161/88 97/162/88 93/150/88
f 95/158/86 99/163/86 98/161/86 94/159/86
f 96/154/85 100/164/85 99/165/85 95/155/85
f 93/150/84 97/162/84 100/166/84 96/151/84
f 97/162/84 104/167/84 103/168/84 100/166/84
f 100/164/89 103/169/89 102/170/89 99/165/89
f 99/163/86 102/171/86 101/172/86 98/161/86
f 98/161/90 101/172/90 104/167/90 97/162/90
f 105/173/91 109/174/91 111/175/91 107/176/91
f 110/153/92 106/156/92 108/160/92 112/149/92
f 101/172/93 107/176/93 111/177/93 104/167/93
f 102/171/86 105/173/86 107/176/86 101/172/86
f 103/169/94 109/174/94 105/173/94 102/170/94
f 104/167/84 111/177/84 109/178/84 103/168/84
f 132/179/84 130/180/84 116/181/84 113/182/84
f 130/183/95 126/184/95 115/185/95 116/186/95
f 126/184/86 128/187/86 114/188/86 115/185/86
f 128/187/96 132/179/96 113/182/96 114/188/96
f 114/188/97 113/182/97 117/189/97 118/190/97
f 115/185/86 114/188/86 118/191/86 119/192/86
f 116/186/95 115/185/95 119/192/95 120/193/95
f 113/182/84 116/181/84 120/194/84 117/189/84
f 117/189/84 120/194/84 123/195/84 124/196/84
f 120/193/98 119/192/98 122/197/98 123/198/98
f 119/192/86 118/191/86 121/199/86 122/197/86
f 118/190/99 117/189/99 124/196/99 121/199/99
f 125/200/100 127/201/100 131/202/100 129/203/100
f 130/183/101 132/179/101 128/187/101 126/184/101
f 121/199/102 124/196/102 131/204/102 127/201/102
f 122/197/86 121/199/86 127/201/86 125/200/86
f 123/198/103 122/197/103 125/200/103 129/203/103
f 124/196/84 123/195/84 129/205/84 131/204/84
f 157/206/104 153/207/104 134/208/104 136/209/104
f 172/210/84 156/211/84 135/212/84 133/213/84
f 162/214/86 157/206/86 136/209/86 139/215/86
f 156/211/105 160/216/105 137/217/105 135/212/105
f 160/216/84 164/218/84 138/219/84 137/217/84
f 166/220/86 162/214/86 139/215/86 141/221/86
f 168/222/106 172/223/106 133/224/106 140/225/106
f 153/207/86 168/226/86 140/227/86 134/208/86
f 170/228/107 166/220/107 141/221/107 142/229/107
f 164/218/84 170/230/84 142/231/84 138/219/84
f 138/219/84 142/231/84 151/232/84 147/233/84
f 142/229/108 141/221/108 150/234/108 151/235/108
f 134/208/109 140/227/109 149/236/109 143/237/109
f 140/225/110 133/224/110 152/238/110 149/239/110
f 141/221/86 139/215/86 148/240/86 150/234/86
f 137/217/84 138/219/84 147/233/84 146/241/84
f 135/212/111 137/217/111 146/241/111 144/242/111
f 139/215/86 136/209/86 145/243/86 148/240/86
f 133/213/112 135/212/112 144/242/112 152/244/112
f 136/209/113 134/208/113 143/237/113 145/243/113
f 145/243/114 143/237/114 155/245/114 159/246/114
f 160/247/115 156/248/115 153/249/115 157/250/115
f 159/246/116 155/245/116 154/251/116 158/252/116
f 152/244/117 144/242/117 154/251/117 171/253/117
f 148/240/86 145/243/86 159/246/86 161/254/86
f 164/255/118 160/247/118 157/250/118 162/256/118
f 161/254/119 159/246/119 158/252/119 163/257/119
f 144/242/120 146/241/120 158/252/120 154/251/120
f 146/241/84 147/233/84 163/257/84 158/252/84
f 150/234/86 148/240/86 161/254/86 165/258/86
f 170/259/121 164/255/121 162/256/121 166/260/121
f 165/258/122 161/254/122 163/257/122 169/261/122
f 155/245/123 167/262/123 171/253/123 154/251/123
f 156/248/124 172/263/124 168/264/124 153/249/124
f 149/239/125 152/238/125 171/253/125 167/262/125
f 143/237/126 149/236/126 167/262/126 155/245/126
f 151/235/108 150/234/108 165/258/108 169/261/108
f 147/233/84 151/232/84 169/261/84 163/257/84
f 192/265/84 190/266/84 176/267/84 173/268/84
f 190/266/95 186/269/95 175/270/95 176/267/95
f 186/269/86 188/271/86 174/272/86 175/273/86
f 188/274/96 192/275/96 173/276/96 174/272/96
f 174/272/97 173/276/97 177/277/97 178/278/97
f 175/273/86 174/272/86 178/278/86 179/279/86
f 176/267/95 175/270/95 179/280/95 180/281/95
f 173/268/84 176/267/84 180/281/84 177/282/84
f 177/282/84 180/281/84 183/283/84 184/284/84
f 180/281/98 179/280/98 182/285/98 183/283/98
f 179/279/86 178/278/86 181/286/86 182/287/86
f 178/278/99 177/277/99 184/288/99 181/286/99
f 185/289/100 187/290/100 191/291/100 189/292/100
f 190/266/101 192/265/101 188/271/101 186/269/101
f 181/286/102 184/288/102 191/291/102 187/290/102
f 182/287/86 181/286/86 187/293/86 185/294/86
f 183/283/103 182/285/103 185/289/103 189/292/103
f 184/284/84 183/283/84 189/292/84 191/291/84
f 212/295/84 193/296/84 196/297/84 210/298/84
f 210/298/85 196/297/85 195/299/85 206/300/85
f 206/300/86 195/299/86 194/301/86 208/302/86
f 208/303/87 194/304/87 193/305/87 212/306/87
f 194/304/88 198/307/88 197/308/88 193/305/88
f 195/299/86 199/309/86 198/310/86 194/301/86
f 196/297/85 200/311/85 199/309/85 195/299/85
f 193/296/84 197/312/84 200/311/84 196/297/84
f 197/312/84 204/313/84 203/314/84 200/311/84
f 200/311/89 203/314/89 202/315/89 199/309/89
f 199/309/86 202/315/86 201/316/86 198/310/86
f 198/307/90 201/317/90 204/318/90 197/308/90
f 205/319/91 209/320/91 211/321/91 207/322/91
f 210/298/92 206/300/92 208/302/92 212/295/92
f 201/317/93 207/322/93 211/321/93 204/318/93
f 202/315/86 205/319/86 207/323/86 201/316/86
f 203/314/94 209/320/94 205/319/94 202/315/94
f 204/313/84 211/321/84 209/320/84 203/314/84
f 237/324/127 216/325/127 214/326/127 233/327/127
f 252/328/84 213/329/84 215/330/84 236/331/84
f 242/332/86 219/333/86 216/325/86 237/324/86
f 236/331/128 215/330/128 217/334/128 240/335/128
f 240/335/84 217/334/84 218/336/84 244/337/84
f 246/338/86 221/339/86 219/333/86 242/332/86
f 248/340/129 220/341/129 213/342/129 252/343/129
f 233/327/86 214/326/86 220/344/86 248/345/86
f 250/346/130 222/347/130 221/339/130 246/338/130
f 244/337/84 218/336/84 222/348/84 250/349/84
f 218/336/84 227/350/84 231/351/84 222/348/84
f 222/347/130 231/352/130 230/353/130 221/339/130
f 214/326/131 223/354/131 229/355/131 220/344/131
f 220/341/132 229/356/132 232/357/132 213/342/132
f 221/339/86 230/353/86 228/358/86 219/333/86
f 217/334/84 226/359/84 227/350/84 218/336/84
f 215/330/133 224/360/133 226/359/133 217/334/133
f 219/333/86 228/358/86 225/361/86 216/325/86
f 213/329/134 232/362/134 224/360/134 215/330/134
f 216/325/135 225/361/135 223/354/135 214/326/135
f 225/361/136 239/363/136 235/364/136 223/354/136
f 240/365/137 237/366/137 233/367/137 236/368/137
f 239/363/138 238/369/138 234/370/138 235/364/138
f 232/362/139 251/371/139 234/370/139 224/360/139
f 228/358/86 241/372/86 239/363/86 225/361/86
f 244/373/140 242/374/140 237/366/140 240/365/140
f 241/372/141 243/375/141 238/369/141 239/363/141
f 224/360/142 234/370/142 238/369/142 226/359/142
f 226/359/84 238/369/84 243/375/84 227/350/84
f 230/353/86 245/376/86 241/372/86 228/358/86
f 250/377/143 246/338/143 242/332/143 244/378/143
f 245/376/144 249/379/144 243/375/144 241/372/144
f 235/364/145 234/370/145 251/371/145 247/380/145
f 236/368/146 233/367/146 248/381/146 252/382/146
f 229/356/147 247/380/147 251/371/147 232/357/147
f 223/354/148 235/364/148 247/380/148 229/355/148
f 231/352/130 249/379/130 245/376/130 230/353/130
f 227/350/84 243/375/84 249/379/84 231/351/84
o Dress
v -0.479434 6.927832 0.569922
v -0.479434 6.927832 -0.569922
v 0.784378 6.398279 0.569922
v 0.784378 6.398279 -0.569922
v -1.055214 5.652107 1.183769
v -1.055214 5.652107 -1.183769
v 1.147022 5.314312 -1.183769
v 1.147022 5.314312 1.183769
v -1.234914 4.495992 -1.267020
v 1.263792 4.535181 -1.267020
v 1.263792 4.535181 1.267020
v -1.234914 4.495992 1.267020
v -1.537624 1.658116 -1.587041
v 1.359232 2.044928 -1.587041
v 1.402479 3.012462 1.445649
v -1.494377 2.625651 1.445649
v -0.967601 6.339342 0.992666
v -0.967601 6.339342 -0.992666
v 0.991177 5.954600 -0.992666
v 0.991177 5.954600 0.992666
vn -0.7697 0.6385 -0.0000
vn 0.1692 0.5965 -0.7846
vn 0.9064 0.4225 -0.0000
vn 0.1692 0.5965 0.7846
vn 0.3865 0.9223 -0.0000
vn 0.0054 0.0855 0.9963
vn 0.9890 0.1482 -0.0000
vn 0.0054 0.0855 -0.9963
vn -0.9881 0.1536 -0.0000
vn -0.9928 0.1189 -0.0130
vn -0.0094 0.1196 -0.9928
vn 0.9981 0.0589 -0.0180
vn -0.0083 0.1050 0.9944
vn 0.1263 -0.9456 0.2999
vn 0.0484 0.2786 0.9592
vn 0.9716 0.2365 -0.0000
vn 0.0484 0.2786 -0.9592
vn -0.9920 0.1265 -0.0000
vt 0.915402 0.083573
vt 0.927704 0.070170
vt 0.950754 0.084443
vt 0.951143 0.105358
vt 0.690918 0.198795
vt 0.671782 0.195897
vt 0.668599 0.165102
vt 0.679609 0.155136
vt 0.888746 0.011029
vt 0.900469 0.021184
vt 0.901226 0.047109
vt 0.888748 0.053455
vt 0.646293 0.198592
vt 0.643092 0.167944
vt 0.857624 0.062916
vt 0.874417 0.058047
vt 0.903418 0.093352
vt 0.884383 0.110450
vt 0.854675 0.006843
vt 0.872998 0.007032
vt 0.730269 0.186331
vt 0.705839 0.193578
vt 0.692068 0.145249
vt 0.707722 0.135455
vt 0.945659 0.121918
vt 0.930090 0.144825
vt 0.853443 0.138080
vt 0.895553 0.198795
vt 0.791032 0.170984
vt 0.761080 0.111493
vt 0.798833 0.003312
vt 0.823982 0.074654
s 0
usemtl Material.002
f 269/383/149 253/384/149 254/385/149 270/386/149
f 270/387/150 254/388/150 256/389/150 271/390/150
f 271/391/151 256/392/151 255/393/151 272/394/151
f 272/394/152 255/393/152 253/384/152 269/383/152
f 256/389/153 254/388/153 253/395/153 255/396/153
f 263/397/154 260/398/154 257/399/154 264/400/154
f 262/401/155 259/402/155 260/398/155 263/397/155
f 261/403/156 258/404/156 259/405/156 262/406/156
f 264/400/157 257/399/157 258/407/157 261/408/157
f 268/409/158 264/400/158 261/408/158 265/410/158
f 265/411/159 261/403/159 262/406/159 266/412/159
f 266/413/160 262/401/160 263/397/160 267/414/160
f 267/414/161 263/397/161 264/400/161 268/409/161
f 267/414/162 268/409/162 265/411/162 266/412/162
f 260/398/163 272/394/163 269/383/163 257/399/163
f 259/402/164 271/391/164 272/394/164 260/398/164
f 258/404/165 270/387/165 271/390/165 259/405/165
f 257/399/166 269/383/166 270/386/166 258/407/166
o Head
v 0.563192 10.055250 -0.481328
v 0.454961 9.040691 -0.129481
v 0.563192 10.055250 0.481328
v 0.454961 9.040691 0.129481
v -0.699276 10.055250 -0.481328
v -0.438849 9.294266 -0.344826
v -0.699276 10.055250 0.481328
v -0.438849 9.294266 0.344826
v 0.412541 9.428061 -0.481328
v -0.507694 9.428061 0.481328
v 0.412541 9.428061 0.481328
v -0.507694 9.428061 -0.481328
v -0.507694 9.556190 0.481328
v 0.484861 9.481983 -0.481328
v 0.484861 9.481983 0.481328
v -0.507694 9.556190 -0.481328
v -0.696512 9.645662 0.481328
v 0.616318 9.645662 -0.481328
v 0.616318 9.645662 0.481328
v -0.696512 9.645662 -0.481328
v 0.610757 10.261759 -0.481328
v 0.610757 10.261759 0.481328
v 0.373876 10.568667 -0.481328
v 0.373876 10.568667 0.481328
v -0.293902 10.601128 -0.481328
v -0.293902 10.601128 0.481328
v -0.329959 9.188217 -0.246626
v -0.348928 10.055250 0.656532
v -0.329959 9.188217 0.246626
v -0.348928 10.055250 -0.656532
v -0.369126 9.428061 -0.481328
v -0.369126 9.428061 0.481328
v -0.360152 9.481983 -0.481328
v -0.360152 9.481983 0.481328
v -0.368231 9.645662 -0.617364
v -0.368231 9.645662 0.617364
v 0.191733 9.092596 0.295376
v 0.422002 10.055250 -0.656532
v 0.303728 9.428061 -0.481328
v 0.356273 9.481983 -0.481328
v 0.308969 9.645662 -0.617364
v 0.191733 9.092596 -0.295376
v 0.422002 10.055250 0.656532
v 0.303728 9.428061 0.481328
v 0.356273 9.481983 0.481328
v 0.308969 9.645662 0.617364
v 0.039987 10.601128 0.481328
v 0.039987 10.601128 -0.481328
v -0.072731 9.141069 -0.278501
v -0.037365 9.428061 0.557996
v -0.006909 9.481983 0.576379
v -0.034327 9.645662 0.672973
v -0.072731 9.141069 0.278501
v -0.037365 9.428061 -0.557996
v -0.006909 9.481983 -0.576379
v -0.034327 9.645662 -0.672973
v -0.129880 8.829277 -0.278501
v -0.253417 8.876424 -0.246626
v -0.253417 8.876424 0.246626
v -0.129880 8.829277 0.278501
v 0.134584 8.780803 0.295376
v 0.134584 8.780803 -0.295376
v 0.578086 9.850456 -0.481328
v 0.578086 9.850456 0.481328
v 0.365486 9.850456 0.636948
v 0.365486 9.850456 -0.636948
v -0.438849 9.294266 -0.205989
v -0.438849 9.294266 0.205989
v 0.454961 9.040691 0.055413
v 0.454961 9.040691 -0.055413
v 0.609104 9.428061 -0.205989
v 0.609104 9.428061 0.205989
v -0.507694 9.428061 0.205989
v -0.507694 9.428061 -0.205989
v 0.681423 9.481983 -0.055409
v 0.681423 9.481983 0.055409
v -0.507694 9.556190 0.205989
v -0.507694 9.556190 -0.205989
v 0.616318 9.645662 -0.050391
v 0.616318 9.645662 0.050391
v -0.696512 9.645662 0.205989
v -0.696512 9.645662 -0.205989
v -0.329959 9.188217 -0.105547
v -0.329959 9.188217 0.105547
v 0.191733 9.092596 -0.126410
v 0.191733 9.092596 0.126410
v -0.253417 8.876424 -0.105547
v -0.253417 8.876424 0.105547
v 0.134584 8.780803 -0.126410
v 0.134584 8.780803 0.126410
v -0.129880 8.829277 -0.119188
v -0.129880 8.829277 0.119188
v 0.578086 9.850456 -0.205989
v 0.578086 9.850456 0.205989
v 0.433751 9.234376 -0.305404
v 0.433751 9.234376 0.305404
v -0.473272 9.361163 -0.387126
v -0.473272 9.361163 0.387126
v -0.349542 9.308140 0.363977
v -0.349542 9.308140 -0.363977
v 0.247731 9.260328 0.388352
v 0.247731 9.260328 -0.388352
v -0.055048 9.284566 -0.379914
v -0.055048 9.284566 0.379914
v -0.473272 9.361163 0.205989
v -0.473272 9.361163 -0.205989
v 0.532032 9.234376 -0.130701
v 0.532032 9.234376 0.130701
v 0.032076 8.731253 0.481328
v -0.046964 8.731253 0.481328
v 0.032076 8.731253 -0.481328
v 0.155665 8.731253 -0.481328
v 0.155665 8.731253 0.481328
v -0.046964 8.731253 -0.481328
v -0.055333 8.611331 0.363977
v -0.055333 8.611331 -0.363977
v 0.203098 8.563519 0.355796
v 0.203098 8.563519 -0.355796
v 0.032871 8.587757 -0.339040
v 0.032871 8.587757 0.339040
v 0.002830 10.057956 0.733501
v 0.002830 10.057956 -0.733501
v -0.077365 8.936161 0.426629
v -0.276821 8.959735 0.410692
v 0.137705 9.079658 0.528207
v 0.225414 8.911924 0.412117
v -0.059682 9.079658 0.556815
v -0.224464 9.079658 0.481328
v -0.276821 8.959735 -0.410692
v -0.224464 9.079658 -0.481328
v -0.077365 8.936161 -0.426629
v 0.225414 8.911924 -0.412117
v -0.059682 9.079658 -0.556815
v 0.137705 9.079658 -0.528207
v -0.535644 10.445140 0.481328
v -0.535644 10.445140 -0.481328
v 0.070077 8.529358 0.478580
v -0.003904 8.529358 0.478580
v 0.197724 8.529358 0.478580
v 0.045251 8.409435 0.361229
v 0.355173 8.361625 0.385604
v 0.184946 8.385861 0.377167
vn -0.0000 1.0000 -0.0000
vn -0.4166 -0.0350 0.9084
vn -1.0000 -0.0067 -0.0000
vn -0.1935 -0.9811 -0.0000
vn 0.9974 0.0725 -0.0000
vn 0.6793 -0.1038 -0.7265
vn 0.1676 -0.5988 -0.7832
vn 0.7553 -0.4298 0.4948
vn -0.8892 -0.4575 -0.0000
vn -0.0963 -0.7582 0.6449
vn -0.0000 -0.0000 -1.0000
vn 0.7842 -0.4379 0.4396
vn -1.0000 -0.0000 -0.0000
vn -0.0000 -0.0000 1.0000
vn 0.2693 -0.4278 -0.8628
vn 0.9568 -0.1906 0.2195
vn -0.4282 -0.9037 -0.0000
vn -0.3033 -0.6232 0.7208
vn 0.9745 -0.2245 -0.0000
vn 0.7916 0.6110 -0.0000
vn -0.5422 0.8403 -0.0000
vn -0.1740 -0.5829 0.7937
vn -0.3033 -0.6232 -0.7208
vn -0.2425 -0.0762 0.9672
vn 0.8101 -0.0909 0.5792
vn -0.0963 -0.7582 -0.6449
vn -0.4166 -0.0350 -0.9084
vn -0.6977 -0.7164 -0.0000
vn 0.6793 -0.1038 0.7265
vn 0.1676 -0.5988 0.7832
vn 0.2693 -0.4278 0.8628
vn 0.1751 -0.5434 -0.8210
vn 0.2237 -0.3286 -0.9176
vn 0.0003 0.1894 -0.9819
vn 0.9836 -0.1803 -0.0000
vn 0.5406 0.1993 0.8173
vn -0.3344 0.2484 0.9091
vn -0.3344 0.2484 -0.9091
vn 0.5406 0.1993 -0.8173
vn 0.0968 0.9953 -0.0000
vn -0.9712 -0.2384 -0.0000
vn 0.0003 0.1894 0.9819
vn -0.2425 -0.0762 -0.9672
vn -0.1740 -0.5829 -0.7937
vn -0.6031 -0.3919 -0.6948
vn 0.2237 -0.3286 0.9176
vn 0.1751 -0.5434 0.8210
vn -0.1803 -0.9836 -0.0000
vn -0.3566 -0.9343 -0.0000
vn -0.1664 -0.0052 -0.9860
vn -0.0616 0.0113 0.9980
vn -0.1664 -0.0052 0.9860
vn -0.0616 0.0113 -0.9980
vn 0.4882 -0.0634 0.8704
vn 0.4882 -0.0634 -0.8704
vn 0.9830 0.1835 -0.0000
vn 0.9568 -0.1906 -0.2195
vn 0.9292 0.3696 -0.0000
vn 0.7842 -0.4379 -0.4396
vn 0.5977 -0.8017 -0.0000
vn 0.7553 -0.4298 -0.4948
vn 0.9291 -0.3697 -0.0000
vn 0.8716 -0.3490 -0.3443
vn -0.1034 -0.5092 0.8544
vn -0.1470 -0.6326 -0.7604
vn -0.1034 -0.5092 -0.8544
vn 0.3124 -0.5862 0.7475
vn -0.0587 -0.6583 -0.7505
vn -0.1470 -0.6326 0.7604
vn -0.0587 -0.6583 0.7505
vn 0.8716 -0.3490 0.3443
vn 0.3124 -0.5862 -0.7475
vn -0.9263 -0.3319 0.1782
vn -0.0969 -0.6578 -0.7470
vn 0.0072 -0.7021 -0.7121
vn 0.8854 0.4364 0.1602
vn 0.0876 -0.1589 0.9834
vn 0.0257 0.2053 0.9784
vn -0.2890 -0.2128 -0.9334
vn 0.8101 -0.0909 -0.5792
vn 0.0876 -0.1589 -0.9834
vn -0.2890 -0.2128 0.9334
vn -0.6031 -0.3919 0.6948
vn 0.0257 0.2053 -0.9784
vn -0.1884 -0.1055 -0.9764
vn 0.1689 -0.1490 -0.9743
vn 0.1116 0.3736 -0.9208
vn -0.1050 0.3710 -0.9227
vn 0.1116 0.3736 0.9208
vn -0.1050 0.3710 0.9227
vn -0.1884 -0.1055 0.9764
vn 0.1689 -0.1490 0.9743
vn -0.0179 -0.0995 -0.9949
vn -0.8592 -0.2377 0.4530
vn -0.2926 -0.0530 0.9548
vn 0.1919 0.0125 0.9813
vn 0.0516 -0.1290 -0.9903
vn 0.8765 -0.1922 0.4413
vn 0.1919 0.0125 -0.9813
vn 0.8765 -0.1922 -0.4413
vn -0.2926 -0.0530 -0.9548
vn -0.0179 -0.0995 0.9949
vn -0.8592 -0.2377 -0.4530
vn 0.0516 -0.1290 0.9903
vn -0.9221 0.3870 -0.0000
vn -0.1288 -0.6798 0.7220
vn -0.0697 -0.5716 0.8176
vn -0.0655 -0.1277 -0.9896
vn -0.0000 -0.0136 0.9999
vn 0.0555 -0.1248 -0.9906
vt 0.256952 0.940224
vt 0.267022 0.945257
vt 0.267021 0.972927
vt 0.256952 0.977960
vt 0.671525 0.897279
vt 0.658641 0.897512
vt 0.660856 0.886006
vt 0.673095 0.887517
vt 0.215853 0.968407
vt 0.215845 0.980068
vt 0.188362 0.980068
vt 0.188230 0.968320
vt 0.196132 0.968230
vt 0.207942 0.968308
vt 0.163906 0.949728
vt 0.166777 0.956916
vt 0.164786 0.956801
vt 0.158763 0.950544
vt 0.177783 0.983074
vt 0.177002 0.989029
vt 0.149360 0.984707
vt 0.150265 0.978689
vt 0.158039 0.980130
vt 0.169923 0.982032
vt 0.660887 0.802823
vt 0.654162 0.804382
vt 0.653494 0.797361
vt 0.659442 0.795653
vt 0.684254 0.801250
vt 0.676820 0.800275
vt 0.675709 0.797237
vt 0.683201 0.794814
vt 0.163515 0.962031
vt 0.160222 0.967221
vt 0.151542 0.962964
vt 0.158243 0.959328
vt 0.196198 0.956271
vt 0.196161 0.958452
vt 0.188213 0.958494
vt 0.190950 0.956273
vt 0.686091 0.898094
vt 0.680133 0.897818
vt 0.679890 0.893674
vt 0.683045 0.894793
vt 0.674468 0.799020
vt 0.672337 0.795645
vt 0.164137 0.970331
vt 0.151593 0.965777
vt 0.196129 0.962170
vt 0.188210 0.962234
vt 0.678237 0.897670
vt 0.675881 0.893096
vt 0.667507 0.802123
vt 0.665686 0.793225
vt 0.163411 0.975175
vt 0.151261 0.972333
vt 0.301555 0.940224
vt 0.301562 0.967888
vt 0.295471 0.967896
vt 0.295465 0.940223
vt 0.284325 0.967889
vt 0.284325 0.940228
vt 0.222626 0.949870
vt 0.250297 0.949860
vt 0.250318 0.959455
vt 0.222643 0.959467
vt 0.250329 0.967732
vt 0.222658 0.967728
vt 0.675117 0.907318
vt 0.670548 0.906286
vt 0.078499 0.965150
vt 0.083650 0.968797
vt 0.073788 0.968953
vt 0.074213 0.962137
vt 0.676628 0.906898
vt 0.078346 0.960877
vt 0.074248 0.960176
vt 0.019945 0.950362
vt 0.022970 0.955771
vt 0.013368 0.950157
vt 0.012281 0.944209
vt 0.077506 0.957456
vt 0.074367 0.954103
vt 0.083339 0.981202
vt 0.071631 0.981772
vt 0.208171 0.954435
vt 0.205441 0.950019
vt 0.209496 0.950201
vt 0.212170 0.954523
vt 0.273645 0.945258
vt 0.277702 0.940224
vt 0.277702 0.977961
vt 0.273644 0.972926
vt 0.037217 0.980727
vt 0.035916 0.986642
vt 0.028944 0.986264
vt 0.029910 0.979510
vt 0.149970 0.960156
vt 0.154021 0.955361
vt 0.149360 0.962350
vt 0.037352 0.968788
vt 0.039398 0.974864
vt 0.030589 0.972846
vt 0.034272 0.966288
vt 0.673492 0.808582
vt 0.670017 0.811025
vt 0.674461 0.809697
vt 0.690819 0.908100
vt 0.696416 0.908579
vt 0.699779 0.918842
vt 0.696954 0.918164
vt 0.158663 0.940924
vt 0.163518 0.940720
vt 0.016939 0.996688
vt 0.031262 0.993428
vt 0.026573 0.996346
vt 0.643092 0.905347
vt 0.644528 0.897588
vt 0.651542 0.888037
vt 0.061341 0.995882
vt 0.079811 0.990335
vt 0.069242 0.995703
vt 0.643092 0.816250
vt 0.644184 0.805825
vt 0.647747 0.801258
vt 0.222639 0.940224
vt 0.250297 0.940224
vt 0.199344 0.949793
vt 0.195282 0.949563
vt 0.195958 0.940224
vt 0.199981 0.940532
vt 0.064199 0.943051
vt 0.064513 0.948775
vt 0.054706 0.943177
vt 0.052855 0.940906
vt 0.064386 0.964262
vt 0.064959 0.962838
vt 0.064793 0.968803
vt 0.065488 0.952746
vt 0.055114 0.947659
vt 0.032978 0.963418
vt 0.024505 0.966425
vt 0.023492 0.965371
vt 0.021873 0.969932
vt 0.311998 0.952155
vt 0.319723 0.952383
vt 0.319689 0.957249
vt 0.311976 0.956729
vt 0.308197 0.951762
vt 0.308184 0.955806
vt 0.079603 0.951183
vt 0.077725 0.943835
vt 0.085469 0.940224
vt 0.086676 0.944007
vt 0.037852 0.951092
vt 0.035227 0.943815
vt 0.043223 0.940223
vt 0.046194 0.947238
vt 0.696407 0.894992
vt 0.689117 0.893045
vt 0.696112 0.886006
vt 0.699916 0.887110
vt 0.696396 0.800690
vt 0.691662 0.794623
vt 0.700981 0.790832
vt 0.703959 0.797388
vt 0.178624 0.977078
vt 0.166309 0.975649
vt 0.308184 0.941661
vt 0.311979 0.940742
vt 0.311995 0.945314
vt 0.308194 0.945709
vt 0.319694 0.940223
vt 0.319733 0.945091
vt 0.206004 0.940870
vt 0.210044 0.941109
vt 0.176114 0.949255
vt 0.171276 0.949413
vt 0.170908 0.940376
vt 0.175785 0.940223
vt 0.192235 0.954046
vt 0.196257 0.954089
vt 0.215923 0.962497
vt 0.207994 0.962349
vt 0.180485 0.971232
vt 0.167202 0.970858
vt 0.216003 0.958864
vt 0.208064 0.958705
vt 0.181587 0.968874
vt 0.171975 0.969377
vt 0.213341 0.956673
vt 0.208113 0.956570
vt 0.176788 0.963037
vt 0.171005 0.963208
vt 0.171908 0.957140
vt 0.169832 0.957014
vt 0.031227 0.955024
vt 0.031483 0.945530
vt 0.073589 0.944959
vt 0.693166 0.801935
vt 0.077209 0.955233
vt 0.695165 0.899167
vt 0.685137 0.895179
vt 0.686088 0.787721
vt 0.691930 0.917471
vt 0.698883 0.923624
vt 0.695001 0.922368
vt 0.697651 0.821057
vt 0.687208 0.824235
vt 0.688963 0.821299
vt 0.692450 0.819479
vt 0.052817 0.948542
vt 0.005926 0.948046
vt 0.007196 0.943951
vt 0.018454 0.959680
vt 0.011804 0.953134
vt 0.688992 0.811956
vt 0.696586 0.810327
vt 0.060953 0.955580
vt 0.683737 0.809988
vt 0.680049 0.814801
vt 0.683975 0.911337
vt 0.686904 0.906995
vt 0.690396 0.919263
vt 0.023436 0.943274
vt 0.014760 0.940472
vt 0.061511 0.978124
vt 0.660924 0.814647
vt 0.648109 0.824235
vt 0.052817 0.991546
vt 0.008792 0.992974
vt 0.017851 0.979088
vt 0.660692 0.908083
vt 0.645943 0.914464
vt 0.250293 0.979897
vt 0.222641 0.979868
vt 0.701851 0.926869
vt 0.694247 0.924769
vt 0.003311 0.950686
vt 0.005248 0.940224
s 0
usemtl Material.005
f 302/415/167 277/416/167 279/417/167 300/418/167
f 308/419/168 300/420/168 279/421/168 289/422/168
f 289/423/169 279/424/169 277/425/169 292/426/169 354/427/169 353/428/169
f 358/429/170 341/430/170 276/431/170 309/432/170
f 335/433/171 273/434/171 275/435/171 336/436/171 366/437/171 365/438/171
f 338/439/172 310/440/172 273/441/172 335/442/172
f 374/443/173 311/444/173 281/445/173 367/446/173
f 380/447/174 344/448/174 283/449/174 368/450/174
f 378/451/175 346/452/175 284/453/175 369/454/175
f 371/455/176 304/456/176 282/457/176 370/458/176
f 311/444/177 312/459/177 286/460/177 281/445/177
f 344/448/178 348/461/178 287/462/178 283/449/178
f 346/452/179 350/463/179 288/464/179 284/453/179
f 304/456/180 306/465/180 285/466/180 282/457/180
f 312/459/181 313/467/181 290/468/181 286/460/181
f 348/461/182 352/469/182 291/470/182 287/462/182
f 350/463/183 354/427/183 292/426/183 288/464/183
f 306/465/184 308/419/184 289/422/184 285/466/184
f 275/471/185 273/472/185 293/473/185 294/474/185
f 294/474/186 293/473/186 295/475/186 296/476/186
f 319/477/167 320/478/167 297/479/167 298/480/167
f 408/481/187 407/482/187 298/480/187 297/479/187
f 323/483/188 324/484/188 308/419/188 306/465/188
f 288/485/189 292/486/189 307/487/189 305/488/189
f 322/489/190 323/483/190 306/465/190 304/456/190
f 284/490/177 288/485/177 305/488/177 303/491/177
f 398/492/191 397/493/191 385/494/191 389/495/191
f 369/496/192 284/490/192 303/491/192 372/497/192
f 292/486/193 277/498/193 302/499/193 307/487/193
f 340/500/194 356/501/194 301/502/194 280/503/194
f 273/504/167 310/505/167 315/506/167 275/507/167
f 336/508/195 275/509/195 315/510/195 337/511/195
f 368/450/196 283/449/196 316/512/196 373/513/196
f 283/449/180 287/462/180 317/514/180 316/512/180
f 287/515/197 291/516/197 318/517/197 317/518/197
f 327/519/198 328/520/198 313/467/198 312/459/198
f 326/521/199 327/519/199 312/459/199 311/444/199
f 396/522/200 395/523/200 392/524/200 387/525/200
f 358/429/201 309/432/201 333/526/201 362/527/201
f 296/528/202 315/510/202 275/529/202 294/530/202
f 300/420/203 298/531/203 407/532/203 279/533/203
f 297/534/204 302/499/204 277/535/204 408/536/204
f 310/440/205 295/537/205 293/538/205 273/539/205
f 296/540/206 295/541/206 320/478/206 319/477/206
f 355/542/207 299/543/207 330/544/207 359/545/207
f 403/546/208 401/547/208 388/548/208 391/549/208
f 303/491/209 305/488/209 327/550/209 326/551/209
f 305/488/210 307/487/210 328/552/210 327/550/210
f 401/547/211 402/553/211 386/554/211 388/548/211
f 316/555/212 317/518/212 323/556/212 322/557/212
f 317/518/213 318/517/213 324/558/213 323/556/213
f 364/559/214 362/560/214 333/561/214 332/562/214
f 360/563/215 364/559/215 332/562/215 331/564/215
f 299/565/216 321/566/216 329/567/216 330/568/216
f 309/569/217 325/570/217 332/571/217 333/572/217
f 325/573/218 301/574/218 331/575/218 332/576/218
f 321/577/219 314/578/219 334/579/219 329/580/219
f 291/516/220 336/508/220 337/511/220 318/517/220
f 313/467/221 338/439/221 335/442/221 290/468/221
f 352/469/222 366/437/222 336/436/222 291/470/222
f 290/581/222 335/433/222 365/438/222 351/582/222
f 351/582/222 365/438/222 366/437/222 352/469/222
f 330/583/215 329/584/215 363/585/215 359/586/215
f 359/586/215 363/585/215 364/559/215 360/563/215
f 329/584/214 334/587/214 361/588/214 363/585/214
f 363/585/214 361/588/214 362/560/214 364/559/214
f 301/502/207 356/501/207 360/589/207 331/590/207
f 356/501/207 355/542/207 359/545/207 360/589/207
f 314/591/201 357/592/201 361/593/201 334/594/201
f 357/592/201 358/429/201 362/527/201 361/593/201
f 278/595/194 299/543/194 355/542/194 339/596/194
f 339/596/194 355/542/194 356/501/194 340/500/194
f 285/597/183 289/423/183 353/428/183 349/598/183
f 349/598/183 353/428/183 354/427/183 350/463/183
f 286/599/223 290/581/223 351/582/223 347/600/223
f 347/600/224 351/582/224 352/469/224 348/461/224
f 282/601/179 285/597/179 349/598/179 345/602/179
f 345/602/179 349/598/179 350/463/179 346/452/179
f 281/603/225 286/599/225 347/600/225 343/604/225
f 343/604/226 347/600/226 348/461/226 344/448/226
f 370/605/175 282/601/175 345/602/175 377/606/175
f 377/606/175 345/602/175 346/452/175 378/451/175
f 367/607/227 281/603/227 343/604/227 379/608/227
f 379/608/228 343/604/228 344/448/228 380/447/228
f 314/591/170 274/609/170 342/610/170 357/592/170
f 357/592/170 342/610/170 341/430/170 358/429/170
f 342/610/228 379/608/228 380/447/228 341/430/228
f 274/609/229 367/607/229 379/608/229 342/610/229
f 340/500/175 377/606/175 378/451/175 339/596/175
f 280/503/175 370/605/175 377/606/175 340/500/175
f 309/569/230 373/611/230 376/612/230 325/570/230
f 299/565/231 372/497/231 375/613/231 321/566/231
f 321/577/232 375/614/232 374/443/232 314/578/232
f 276/431/233 368/450/233 373/513/233 309/432/233
f 278/615/234 369/496/234 372/497/234 299/565/234
f 325/573/235 376/616/235 371/455/235 301/574/235
f 301/574/236 371/455/236 370/458/236 280/617/236
f 339/596/175 378/451/175 369/454/175 278/595/175
f 341/430/237 380/447/237 368/450/237 276/431/237
f 314/578/238 374/443/238 367/446/238 274/618/238
f 382/619/239 387/525/239 412/620/239 410/621/239
f 391/622/240 383/623/240 384/624/240 390/625/240
f 388/548/241 386/554/241 383/626/241 391/549/241
f 389/495/242 385/494/242 411/627/242 413/628/242
f 397/493/243 399/629/243 381/630/243 385/494/243
f 404/631/244 403/632/244 391/622/244 390/625/244
f 402/553/245 405/633/245 383/626/245 386/554/245
f 406/634/246 404/631/246 390/625/246 384/624/246
f 405/635/247 406/634/247 384/624/247 383/623/247
f 399/636/248 400/637/248 382/619/248 381/638/248
f 400/637/249 396/522/249 387/525/249 382/619/249
f 395/639/250 398/492/250 389/495/250 392/640/250
f 307/487/251 302/499/251 394/641/251 328/552/251
f 313/467/252 328/520/252 394/642/252 310/440/252 338/439/252
f 310/440/253 394/642/253 320/643/253 295/537/253
f 320/644/254 394/641/254 302/499/254 297/534/254
f 319/645/255 393/646/255 315/510/255 296/528/255
f 300/420/256 393/647/256 319/648/256 298/531/256
f 324/484/257 393/647/257 300/420/257 308/419/257
f 318/517/258 337/511/258 315/510/258 393/646/258 324/558/258
f 376/612/259 373/611/259 398/492/259 395/639/259
f 304/456/260 371/455/260 396/522/260 400/637/260
f 322/489/261 304/456/261 400/637/261 399/636/261
f 316/555/262 322/557/262 399/629/262 397/493/262
f 371/455/263 376/616/263 395/523/263 396/522/263
f 373/611/264 316/555/264 397/493/264 398/492/264
f 326/521/265 311/444/265 406/634/265 405/635/265
f 311/444/266 374/443/266 404/631/266 406/634/266
f 303/491/267 326/551/267 405/633/267 402/553/267
f 374/443/268 375/614/268 403/632/268 404/631/268
f 372/497/269 303/491/269 402/553/269 401/547/269
f 375/613/270 372/497/270 401/547/270 403/546/270
f 277/649/271 279/650/271 407/482/271 408/481/271
f 414/651/272 409/652/272 410/621/272 412/620/272
f 413/628/273 411/627/273 409/653/273 414/654/273
f 387/525/274 392/524/274 414/651/274 412/620/274
f 385/494/275 381/630/275 409/653/275 411/627/275
f 381/638/275 382/619/275 410/621/275 409/652/275
f 392/640/276 389/495/276 413/628/276 414/654/276
